<svg height="50" viewBox="0 0 64 63.999999" width="50" xmlns="http://www.w3.org/2000/svg"><path d="m20.088053 578.76279v-24.00016c0-1.79111-.34893-3.56734-1.046785-5.32749-.698165-1.76104-1.562895-3.32302-2.593423-4.68822-1.031908-1.36442-2.261363-2.69188-3.687599-3.98376-1.427771-1.29219-2.745111-2.36474-3.9537075-3.21903-1.2081373-.85369-2.4685751-1.66122-3.7808519-2.42195-1.3125864-.76028-2.2452616-1.27562-2.7971051-1.54665-.5518437-.27117-.9947907-.47961-1.3280751-.6253-.2500014-.12451-.5211689-.18713-.8124295-.18713-.2917201 0-.5624267.0627-.81258076.18713-.33343844.14566-.77607884.35413-1.32776984.6253-.552611.27103-1.4845188.78637-2.7972576 1.54665-1.3125851.76073-2.5731749 1.56826-3.7814668 2.42195-1.2081351.85429-2.5257829 1.92684-3.9529389 3.21903-1.427156 1.29188-2.655998 2.61934-3.687139 3.98376-1.031297 1.3652-1.896026 2.92718-2.594036 4.68822-.69801 1.76015-1.046939 3.53638-1.046939 5.32749v24.00016c0 .54172.198161 1.01088.594021 1.40629.395556.39586.864578.59402 1.405992.59402h36.000846c.540954 0 1.009208-.19816 1.405377-.59402.396014-.39541.593868-.86457.593868-1.40629m-6.000346-24.00016v20.00043h-13.9996301v-35.53105c2.4786974 1.31259 4.6980372 2.73943 6.6564844 4.281 4.8952787 3.83317 7.3431457 7.58318 7.3431457 11.24962" fill="#777" transform="matrix(1.3333333 0 0 -1.3333333 31.882666 774.35078)"/></svg>