<?xml version="1.0" encoding="utf-8"?>
<!-- Generator: Adobe Illustrator 24.0.2, SVG Export Plug-In . SVG Version: 6.00 Build 0)  -->
<svg version="1.1"
	 id="svg1008" xmlns:cc="http://creativecommons.org/ns#" xmlns:dc="http://purl.org/dc/elements/1.1/" xmlns:rdf="http://www.w3.org/1999/02/22-rdf-syntax-ns#" xmlns:svg="http://www.w3.org/2000/svg"
	 xmlns="http://www.w3.org/2000/svg" xmlns:xlink="http://www.w3.org/1999/xlink" x="0px" y="0px"
	 viewBox="375 0 100 600" width="50px" height="50px">
<linearGradient id="path980_1_" gradientUnits="userSpaceOnUse" x1="1573.7843" y1="-944.1769" x2="111.3565" y2="466.7912" gradientTransform="matrix(0.3275 0 0 0.3275 134.5906 401.4009)">
	<stop  offset="0.048" style="stop-color:#FFF44F"/>
	<stop  offset="0.111" style="stop-color:#FFE847"/>
	<stop  offset="0.225" style="stop-color:#FFC830"/>
	<stop  offset="0.368" style="stop-color:#FF980E"/>
	<stop  offset="0.401" style="stop-color:#FF8B16"/>
	<stop  offset="0.462" style="stop-color:#FF672A"/>
	<stop  offset="0.534" style="stop-color:#FF3647"/>
	<stop  offset="0.705" style="stop-color:#E31587"/>
</linearGradient>
<path id="path980" fill="#777" d="M688.246,199.715c-12.542-30.158-37.952-62.74-57.895-73.022
	c14.212,27.507,24.068,57.043,29.209,87.561l0.065,0.491c-32.614-81.34-87.922-114.118-133.11-185.536
	c-2.292-3.602-4.584-7.236-6.811-11.035c-1.277-2.193-2.293-4.158-3.177-5.959c-1.866-3.635-3.308-7.467-4.29-11.429
	c0-0.393-0.294-0.688-0.654-0.753c-0.164-0.033-0.36-0.033-0.557,0c-0.033,0-0.099,0.065-0.131,0.098
	c-0.033,0-0.131,0.099-0.197,0.099l0.099-0.196c-72.466,42.437-97.058,120.994-99.316,160.289
	c-28.947,1.997-56.617,12.64-79.408,30.617c-2.391-2.03-4.847-3.896-7.434-5.633c-6.581-23.019-6.844-47.35-0.818-70.533
	c-26.622,12.901-50.265,31.174-69.453,53.67h-0.131c-11.428-14.507-10.643-62.282-9.987-72.27c-3.373,1.375-6.614,3.078-9.627,5.108
	c-10.086,7.204-19.517,15.292-28.194,24.166c-9.889,10.02-18.894,20.826-26.982,32.353v0.033v-0.066
	c-18.533,26.295-31.697,55.995-38.705,87.431l-0.393,1.899c-0.557,2.554-2.489,15.26-2.849,18.01c0,0.23-0.033,0.426-0.066,0.622
	c-2.489,13.131-4.061,26.426-4.65,39.786v1.474c0.131,159.34,129.443,288.423,288.782,288.259
	c140.348-0.131,260.229-101.184,284.067-239.501c0.491-3.732,0.884-7.4,1.31-11.166
	C712.904,295.528,706.452,245.689,688.246,199.715z M355.716,425.528c1.342,0.654,2.619,1.343,3.995,1.965l0.196,0.131
	C358.499,426.968,357.091,426.281,355.716,425.528z M659.659,214.81v-0.262l0.065,0.295L659.659,214.81z"/>
<path id="path982" fill="#777" d="M688.246,199.715c-12.542-30.158-37.952-62.74-57.895-73.022
	c14.212,27.507,24.068,57.043,29.209,87.561v0.262l0.065,0.295c22.234,63.625,19.025,133.405-8.972,194.738
	c-33.073,70.959-113.104,143.687-238.388,140.15c-135.369-3.831-254.596-104.295-276.896-235.866
	c-4.061-20.761,0-31.272,2.03-48.136c-2.751,13.098-4.322,26.426-4.617,39.818v1.474c0.131,159.34,129.443,288.423,288.782,288.259
	c140.348-0.131,260.229-101.184,284.067-239.501c0.491-3.732,0.884-7.4,1.31-11.166
	C712.904,295.528,706.452,245.689,688.246,199.715z"/>
<path id="path984" fill="#777" d="M688.246,199.715c-12.542-30.158-37.952-62.74-57.895-73.022
	c14.212,27.507,24.068,57.043,29.209,87.561v0.262l0.065,0.295c22.234,63.625,19.025,133.405-8.972,194.738
	c-33.073,70.959-113.104,143.687-238.388,140.15c-135.369-3.831-254.596-104.295-276.896-235.866
	c-4.061-20.761,0-31.272,2.03-48.136c-2.751,13.098-4.322,26.426-4.617,39.818v1.474c0.131,159.34,129.443,288.423,288.782,288.259
	c140.348-0.131,260.229-101.184,284.067-239.501c0.491-3.732,0.884-7.4,1.31-11.166
	C712.904,295.528,706.452,245.689,688.246,199.715z"/>
<path id="path988" fill="#aaa" d="M421.796,251.518c-0.491,7.171-25.836,31.927-34.71,31.927
	c-82.027,0-95.355,49.643-95.355,49.643c3.635,41.783,32.746,76.198,67.947,94.405c1.604,0.818,3.242,1.571,4.879,2.324
	c2.816,1.245,5.633,2.424,8.482,3.472c12.083,4.289,24.723,6.713,37.526,7.236c143.785,6.746,171.651-171.946,67.881-223.815
	c24.494-3.177,49.282,2.849,69.552,16.896c-25.771-45.516-74.038-73.71-126.397-73.809c-3.438,0-6.778,0.295-10.151,0.524
	c-28.947,1.997-56.617,12.64-79.407,30.617c4.388,3.732,9.364,8.71,19.811,18.992C371.466,229.218,421.697,249.193,421.796,251.518z
	"/>
<path id="path990" fill="#aaa" d="M421.796,251.518c-0.491,7.171-25.836,31.927-34.71,31.927
	c-82.027,0-95.355,49.643-95.355,49.643c3.635,41.783,32.746,76.198,67.947,94.405c1.604,0.818,3.242,1.571,4.879,2.324
	c2.816,1.245,5.633,2.424,8.482,3.472c12.083,4.289,24.723,6.713,37.526,7.236c143.785,6.746,171.651-171.946,67.881-223.815
	c24.494-3.177,49.282,2.849,69.552,16.896c-25.771-45.516-74.038-73.71-126.397-73.809c-3.438,0-6.778,0.295-10.151,0.524
	c-28.947,1.997-56.617,12.64-79.407,30.617c4.388,3.732,9.364,8.71,19.811,18.992C371.466,229.218,421.697,249.193,421.796,251.518z
	"/>
<path id="path992" fill="#777" d="M318.615,181.312c2.324,1.473,4.257,2.783,5.959,3.962
	c-6.581-23.021-6.844-47.351-0.818-70.534c-26.622,12.902-50.265,31.174-69.453,53.67
	C255.743,168.378,297.593,167.624,318.615,181.312z"/>
<path id="path994" fill="#777" d="M135.405,313.833c22.267,131.571,141.493,232.002,276.862,235.866
	c125.284,3.536,205.314-69.191,238.388-140.151c27.997-61.332,31.206-131.08,8.972-194.737v-0.262c0-0.23-0.032-0.327,0-0.262
	l0.065,0.491c10.25,66.833-23.74,131.571-76.886,175.352l-0.164,0.36c-103.541,84.32-202.629,50.887-222.669,37.232
	c-1.408-0.654-2.783-1.375-4.191-2.096c-60.351-28.849-85.302-83.861-79.965-131.015c-29.274,0.426-56.061-16.405-68.34-42.995
	c32.222-19.745,72.367-21.35,106.063-4.257c34.154,15.521,73.056,17.028,108.322,4.257c-0.099-2.357-50.33-22.332-69.911-41.619
	c-10.446-10.314-15.424-15.26-19.812-18.992c-2.391-2.03-4.847-3.896-7.434-5.633c-1.702-1.179-3.635-2.423-5.959-3.962
	c-21.056-13.688-62.904-12.935-64.279-12.901h-0.131c-11.429-14.507-10.643-62.282-9.988-72.27
	c-3.372,1.375-6.614,3.078-9.627,5.108c-10.085,7.204-19.516,15.292-28.193,24.166c-9.922,9.987-18.96,20.793-27.081,32.287v0.032
	v-0.065c-18.533,26.295-31.697,55.995-38.705,87.431C140.611,245.788,130.362,290.584,135.405,313.833z"/>
<path id="path996" fill="#777" d="M523.045,199.976c10.544,10.348,19.549,22.137,26.786,34.973
	c1.571,1.212,3.077,2.391,4.322,3.536c65.425,60.285,31.141,145.521,28.587,151.612c53.146-43.781,87.102-108.518,76.886-175.352
	c-32.647-81.372-87.954-114.15-133.143-185.568c-2.292-3.602-4.585-7.237-6.812-11.035c-1.277-2.194-2.292-4.159-3.176-5.96
	c-1.867-3.635-3.308-7.466-4.29-11.428c0-0.394-0.295-0.688-0.655-0.754c-0.163-0.032-0.359-0.032-0.557,0
	c-0.032,0-0.098,0.065-0.131,0.099c-0.032,0-0.131,0.098-0.196,0.098C499.533,5.534,433.355,110.287,523.045,199.976z"/>
<path id="path998" fill="#777" d="M554.12,238.485c-1.244-1.145-2.751-2.357-4.322-3.536
	c-0.59-0.426-1.179-0.884-1.801-1.31c-20.303-14.048-45.091-20.073-69.552-16.897c103.77,51.902,75.936,230.562-67.881,223.816
	c-12.804-0.524-25.443-2.98-37.526-7.237c-2.816-1.048-5.633-2.227-8.482-3.471c-1.637-0.753-3.274-1.474-4.879-2.325l0.196,0.131
	c20.04,13.688,119.096,47.121,222.669-37.231l0.164-0.36C585.294,384.007,619.546,298.737,554.12,238.485z"/>
<path id="path1000" fill="#666" d="M291.731,333.088c0,0,13.328-49.643,95.355-49.643
	c8.874,0,34.251-24.756,34.71-31.927c-35.267,12.77-74.169,11.265-108.322-4.257c-33.695-17.094-73.841-15.489-106.063,4.257
	c12.279,26.589,39.065,43.42,68.34,42.994c-5.338,47.187,19.582,102.167,79.965,131.016c1.342,0.654,2.619,1.343,3.995,1.965
	C324.477,409.286,295.365,374.871,291.731,333.088z"/>
</svg>
