<?xml version="1.0" encoding="UTF-8" standalone="no"?>
<svg width="50px" height="50px" viewBox="48 48 160 160" version="1.1" xmlns="http://www.w3.org/2000/svg" xmlns:xlink="http://www.w3.org/1999/xlink" preserveAspectRatio="xMidYMid">
	<g>
		<rect fill="#777" x="48" y="48" width="160" height="160"></rect>
		<path d="M63.2,178 L123.2,178 L123.2,188 L63.2,188 L63.2,178 Z M106,80.8 L106,68.8 L73.2,68.8 L73.2,80.8 L82.4,80.8 L82.4,122.8 L73.2,122.8 L73.2,135.2 L106,135.2 L106,122.8 L96.8,122.8 L96.8,80.8 L106,80.8 Z M138,136 C133.433351,136.205984 128.889763,135.242193 124.8,133.2 C121.453966,131.354025 118.472002,128.914237 116,126 L125.2,115.6 C126.861272,117.42513 128.742265,119.03741 130.8,120.4 C132.73613,121.535124 134.957474,122.09046 137.2,122 C139.666127,122.188479 142.064692,121.139107 143.6,119.2 C145.452667,116.813942 146.312461,113.804666 146,110.8 L146,68 L160.8,68 L160.8,111.2 C160.951789,114.737935 160.408195,118.271293 159.2,121.6 C158.144579,124.977032 156.212191,128.013641 153.6,130.4 C149.066749,133.765567 143.638763,135.714074 138,136 Z" fill="#aaa"></path>
	</g>
</svg>
